<svg version="1.1" id="Layer_1" xmlns="http://www.w3.org/2000/svg" xmlns:xlink="http://www.w3.org/1999/xlink" x="0px" y="0px"
	 width="100%" viewBox="0 0 610 556" enable-background="new 0 0 610 556" xml:space="preserve">
<path fill="#000101" opacity="1.000000" stroke="none" 
	d="
M428.000000,557.000000 
	C285.333344,557.000000 143.166672,557.000000 1.000000,557.000000 
	C1.000000,371.666656 1.000000,186.333328 1.000000,1.000000 
	C204.333328,1.000000 407.666656,1.000000 611.000000,1.000000 
	C611.000000,186.333328 611.000000,371.666656 611.000000,557.000000 
	C550.166687,557.000000 489.333344,557.000000 428.000000,557.000000 
M92.821457,347.404663 
	C92.821457,377.423218 92.821457,407.441742 92.821457,438.678070 
	C94.492065,436.799316 95.440086,435.930328 96.155144,434.899689 
	C107.928963,417.929565 119.757568,400.995880 131.317749,383.881042 
	C132.758316,381.748322 133.311890,378.632019 133.313980,375.970703 
	C133.339005,343.978424 133.056061,311.985840 133.103668,279.993683 
	C133.170364,235.170990 133.533371,190.348587 133.518463,145.526138 
	C133.516754,140.385681 135.096054,138.793152 140.050385,139.039276 
	C144.519440,139.261292 149.027130,138.526993 153.522552,138.425751 
	C177.072800,137.895355 200.541290,138.638718 223.147888,146.146072 
	C248.998306,154.730652 262.634735,176.646225 257.992310,202.719376 
	C254.120636,224.463730 239.961990,238.134048 220.428497,246.729691 
	C208.580307,251.943420 196.012512,254.325058 183.092331,254.943146 
	C176.698624,255.249008 176.490753,255.500702 176.999863,261.637634 
	C177.274750,264.951172 177.839096,268.239655 178.214020,271.546112 
	C179.890793,286.333557 179.884232,286.387299 194.797043,286.082428 
	C215.991333,285.649109 237.172165,285.137573 256.928528,294.945740 
	C257.726013,295.341705 259.923615,294.525299 260.420258,293.666992 
	C264.671814,286.319092 268.695190,278.838684 272.755615,271.380890 
	C274.267670,268.603638 273.356659,267.074677 270.276062,266.461243 
	C266.696472,265.748413 263.168579,264.779968 259.605072,263.981354 
	C256.056000,263.185974 252.490585,262.463531 248.932327,261.709106 
	C251.740219,258.966949 254.582977,257.663574 257.299255,256.135376 
	C282.701294,241.844101 299.851654,221.822449 302.227875,191.491608 
	C304.438171,163.278748 293.687653,141.491333 269.848724,126.310310 
	C248.426666,112.668365 224.214310,107.494576 199.508636,106.591530 
	C166.742752,105.393852 133.897659,106.335587 101.086861,106.440979 
	C98.165855,106.450363 95.246803,107.069763 92.822090,107.348846 
	C92.822090,187.513657 92.822090,266.970764 92.821457,347.404663 
M216.432739,412.067200 
	C220.024872,415.774261 223.617004,419.481323 227.422684,423.408752 
	C234.587769,415.652557 242.354355,409.306793 247.070328,399.652496 
	C256.471313,380.407318 267.116455,361.769104 277.276062,342.895447 
	C285.920715,326.836151 294.605164,310.798279 303.407959,294.499207 
	C304.760071,295.767120 305.870605,296.752350 306.918884,297.799896 
	C321.653259,312.523712 336.106781,327.544037 351.234406,341.851715 
	C357.741577,348.006165 365.642334,352.687164 373.212921,358.260620 
	C395.415863,322.732330 417.057159,288.102753 438.852844,253.226120 
	C448.383911,259.135101 457.476257,264.772125 467.192078,270.795685 
	C470.384613,237.143265 473.500854,204.294952 476.694244,170.633545 
	C447.696350,188.372498 419.461975,205.644379 390.849701,223.147415 
	C400.714417,229.339432 409.814453,235.051437 419.084656,240.870270 
	C401.505402,269.003662 384.201324,296.696655 366.406403,325.175140 
	C344.229431,302.991974 322.604248,281.360809 300.496399,259.246796 
	C271.355988,299.784943 250.661072,345.185638 225.720779,389.136047 
	C211.104370,374.498871 197.022934,360.397430 182.055801,345.409027 
	C154.428726,382.756775 128.601440,421.163300 101.407349,458.989349 
	C108.068329,463.638458 114.250450,467.953339 120.585396,472.374908 
	C142.139526,441.587006 163.382919,411.242981 184.904816,380.501160 
	C195.492538,391.101868 205.712677,401.334534 216.432739,412.067200 
M459.500000,450.003082 
	C494.233582,450.003082 528.967163,450.003082 563.619202,450.003082 
	C563.619202,438.605103 563.619202,427.519623 563.619202,416.312500 
	C509.319305,416.312500 455.321869,416.312500 400.715851,416.312500 
	C400.715851,394.081085 400.715851,372.425140 400.715851,350.769196 
	C400.224304,350.484711 399.732758,350.200256 399.241211,349.915771 
	C389.365173,359.960999 379.489166,370.006226 368.509521,381.173981 
	C366.533417,378.485016 364.586395,375.835693 362.639404,373.186371 
	C362.271027,373.356171 361.902618,373.525970 361.534241,373.695740 
	C361.534241,399.199829 361.534241,424.703888 361.534241,450.003540 
	C393.911133,450.003540 426.205566,450.003540 459.500000,450.003082 
M316.424561,395.894684 
	C326.523468,378.760406 329.941620,360.313354 327.191193,340.683105 
	C326.992828,339.267303 326.667999,337.547577 325.749451,336.605347 
	C318.572052,329.243073 311.234924,322.036560 303.624969,314.461273 
	C298.309113,324.432556 293.049286,333.841736 288.286438,343.496063 
	C286.750305,346.609833 285.846191,350.360931 285.807037,353.833496 
	C285.596527,372.502930 278.814484,387.805634 263.719940,399.154480 
	C262.538269,400.042908 261.495819,401.126495 260.441010,402.172150 
	C248.514786,413.994812 236.598785,425.827759 224.299179,438.036011 
	C218.305710,431.927979 212.451752,425.808289 206.386627,419.905579 
	C205.111969,418.665100 203.044434,417.495026 201.371231,417.534058 
	C193.054626,417.728149 184.744171,418.285583 176.440933,418.852356 
	C175.079514,418.945282 173.183548,419.310303 172.517944,420.247711 
	C165.410965,430.257172 158.502243,440.407349 150.996185,451.307312 
	C153.482086,451.425995 155.080399,451.584045 156.676666,451.565552 
	C168.994995,451.422943 181.324600,451.529144 193.628525,451.020721 
	C218.892807,449.976776 243.543793,445.666351 266.963776,435.727020 
	C286.956085,427.242340 304.442474,415.542938 316.424561,395.894684 
M359.093994,191.499771 
	C359.598236,224.031372 360.102478,256.562988 360.618958,289.884766 
	C361.688049,288.731750 362.294067,288.336884 362.532501,287.783569 
	C370.222748,269.938507 377.928833,252.099579 385.418182,234.170212 
	C385.899109,233.018860 385.113861,230.724915 384.141327,229.697174 
	C381.409332,226.810242 378.271149,224.307663 374.999542,221.391800 
	C381.014648,217.430466 386.665771,213.345016 392.668701,209.866730 
	C397.784882,206.902237 399.534088,202.798065 399.524475,197.106033 
	C399.479523,170.455582 399.655762,143.804749 399.736328,117.154007 
	C399.741211,115.546822 399.602203,113.939201 399.527069,112.263496 
	C385.790100,112.263496 372.576813,112.263496 359.087830,112.263496 
	C359.087830,138.582825 359.087830,164.541306 359.093994,191.499771 
z"/>
<path fill="#69DFCC" opacity="1.000000" stroke="none" 
	d="
M92.821777,346.916260 
	C92.822090,266.970764 92.822090,187.513657 92.822090,107.348846 
	C95.246803,107.069763 98.165855,106.450363 101.086861,106.440979 
	C133.897659,106.335587 166.742752,105.393852 199.508636,106.591530 
	C224.214310,107.494576 248.426666,112.668365 269.848724,126.310310 
	C293.687653,141.491333 304.438171,163.278748 302.227875,191.491608 
	C299.851654,221.822449 282.701294,241.844101 257.299255,256.135376 
	C254.582977,257.663574 251.740219,258.966949 248.932327,261.709106 
	C252.490585,262.463531 256.056000,263.185974 259.605072,263.981354 
	C263.168579,264.779968 266.696472,265.748413 270.276062,266.461243 
	C273.356659,267.074677 274.267670,268.603638 272.755615,271.380890 
	C268.695190,278.838684 264.671814,286.319092 260.420258,293.666992 
	C259.923615,294.525299 257.726013,295.341705 256.928528,294.945740 
	C237.172165,285.137573 215.991333,285.649109 194.797043,286.082428 
	C179.884232,286.387299 179.890793,286.333557 178.214020,271.546112 
	C177.839096,268.239655 177.274750,264.951172 176.999863,261.637634 
	C176.490753,255.500702 176.698624,255.249008 183.092331,254.943146 
	C196.012512,254.325058 208.580307,251.943420 220.428497,246.729691 
	C239.961990,238.134048 254.120636,224.463730 257.992310,202.719376 
	C262.634735,176.646225 248.998306,154.730652 223.147888,146.146072 
	C200.541290,138.638718 177.072800,137.895355 153.522552,138.425751 
	C149.027130,138.526993 144.519440,139.261292 140.050385,139.039276 
	C135.096054,138.793152 133.516754,140.385681 133.518463,145.526138 
	C133.533371,190.348587 133.170364,235.170990 133.103668,279.993683 
	C133.056061,311.985840 133.339005,343.978424 133.313980,375.970703 
	C133.311890,378.632019 132.758316,381.748322 131.317749,383.881042 
	C119.757568,400.995880 107.928963,417.929565 96.155144,434.899689 
	C95.440086,435.930328 94.492065,436.799316 92.821457,438.678070 
	C92.821457,407.441742 92.821457,377.423218 92.821777,346.916260 
z"/>
<path fill="#FCFCFC" opacity="1.000000" stroke="none" 
	d="
M216.182770,411.817200 
	C205.712677,401.334534 195.492538,391.101868 184.904816,380.501160 
	C163.382919,411.242981 142.139526,441.587006 120.585396,472.374908 
	C114.250450,467.953339 108.068329,463.638458 101.407349,458.989349 
	C128.601440,421.163300 154.428726,382.756775 182.055801,345.409027 
	C197.022934,360.397430 211.104370,374.498871 225.720779,389.136047 
	C250.661072,345.185638 271.355988,299.784943 300.496399,259.246796 
	C322.604248,281.360809 344.229431,302.991974 366.406403,325.175140 
	C384.201324,296.696655 401.505402,269.003662 419.084656,240.870270 
	C409.814453,235.051437 400.714417,229.339432 390.849701,223.147415 
	C419.461975,205.644379 447.696350,188.372498 476.694244,170.633545 
	C473.500854,204.294952 470.384613,237.143265 467.192078,270.795685 
	C457.476257,264.772125 448.383911,259.135101 438.852844,253.226120 
	C417.057159,288.102753 395.415863,322.732330 373.212921,358.260620 
	C365.642334,352.687164 357.741577,348.006165 351.234406,341.851715 
	C336.106781,327.544037 321.653259,312.523712 306.918884,297.799896 
	C305.870605,296.752350 304.760071,295.767120 303.407959,294.499207 
	C294.605164,310.798279 285.920715,326.836151 277.276062,342.895447 
	C267.116455,361.769104 256.471313,380.407318 247.070328,399.652496 
	C242.354355,409.306793 234.587769,415.652557 227.422684,423.408752 
	C223.617004,419.481323 220.024872,415.774261 216.182770,411.817200 
z"/>
<path fill="#F09637" opacity="1.000000" stroke="none" 
	d="
M459.000000,450.003296 
	C426.205566,450.003540 393.911133,450.003540 361.534241,450.003540 
	C361.534241,424.703888 361.534241,399.199829 361.534241,373.695740 
	C361.902618,373.525970 362.271027,373.356171 362.639404,373.186371 
	C364.586395,375.835693 366.533417,378.485016 368.509521,381.173981 
	C379.489166,370.006226 389.365173,359.960999 399.241211,349.915771 
	C399.732758,350.200256 400.224304,350.484711 400.715851,350.769196 
	C400.715851,372.425140 400.715851,394.081085 400.715851,416.312500 
	C455.321869,416.312500 509.319305,416.312500 563.619202,416.312500 
	C563.619202,427.519623 563.619202,438.605103 563.619202,450.003082 
	C528.967163,450.003082 494.233582,450.003082 459.000000,450.003296 
z"/>
<path fill="#EF9636" opacity="1.000000" stroke="none" 
	d="
M316.242920,396.213623 
	C304.442474,415.542938 286.956085,427.242340 266.963776,435.727020 
	C243.543793,445.666351 218.892807,449.976776 193.628525,451.020721 
	C181.324600,451.529144 168.994995,451.422943 156.676666,451.565552 
	C155.080399,451.584045 153.482086,451.425995 150.996185,451.307312 
	C158.502243,440.407349 165.410965,430.257172 172.517944,420.247711 
	C173.183548,419.310303 175.079514,418.945282 176.440933,418.852356 
	C184.744171,418.285583 193.054626,417.728149 201.371231,417.534058 
	C203.044434,417.495026 205.111969,418.665100 206.386627,419.905579 
	C212.451752,425.808289 218.305710,431.927979 224.299179,438.036011 
	C236.598785,425.827759 248.514786,413.994812 260.441010,402.172150 
	C261.495819,401.126495 262.538269,400.042908 263.719940,399.154480 
	C278.814484,387.805634 285.596527,372.502930 285.807037,353.833496 
	C285.846191,350.360931 286.750305,346.609833 288.286438,343.496063 
	C293.049286,333.841736 298.309113,324.432556 303.624969,314.461273 
	C311.234924,322.036560 318.572052,329.243073 325.749451,336.605347 
	C326.667999,337.547577 326.992828,339.267303 327.191193,340.683105 
	C329.941620,360.313354 326.523468,378.760406 316.242920,396.213623 
z"/>
<path fill="#69DECB" opacity="1.000000" stroke="none" 
	d="
M359.090912,190.999786 
	C359.087830,164.541306 359.087830,138.582825 359.087830,112.263496 
	C372.576813,112.263496 385.790100,112.263496 399.527069,112.263496 
	C399.602203,113.939201 399.741211,115.546822 399.736328,117.154007 
	C399.655762,143.804749 399.479523,170.455582 399.524475,197.106033 
	C399.534088,202.798065 397.784882,206.902237 392.668701,209.866730 
	C386.665771,213.345016 381.014648,217.430466 374.999542,221.391800 
	C378.271149,224.307663 381.409332,226.810242 384.141327,229.697174 
	C385.113861,230.724915 385.899109,233.018860 385.418182,234.170212 
	C377.928833,252.099579 370.222748,269.938507 362.532501,287.783569 
	C362.294067,288.336884 361.688049,288.731750 360.618958,289.884766 
	C360.102478,256.562988 359.598236,224.031372 359.090912,190.999786 
z"/>
</svg>